<?xml version="1.0" ?><svg enable-background="new 45.6 168.9 504 504" id="Layer_1" version="1.1" viewBox="45.6 168.9 504 504" xml:space="preserve" xmlns="http://www.w3.org/2000/svg" xmlns:xlink="http://www.w3.org/1999/xlink"><polygon fill="#FF9800" points="297.6,558.7 244.7,495.1 244.7,431.5 350.6,431.5 350.6,495.1 "/><g><circle cx="393" cy="368" fill="#FFA726" r="21.2"/><circle cx="202.3" cy="368" fill="#FFA726" r="21.2"/></g><path d="M393,304.4c0-80.5-190.8-53-190.8,0c0,11.7,0,62.5,0,74.2c0,53,42.4,95.4,95.4,95.4s95.4-42.4,95.4-95.4  C393,366.9,393,316,393,304.4z" fill="#FFB74D"/><path d="M297.6,209c-64.6,0-106,51.9-106,116.6c0,8.5,0,24.4,0,24.4l21.2,18v-53L340,272.6l42.4,42.4v53l21.2-18  c0,0,0-15.9,0-24.4c0-42.4-10.6-84.8-63.6-95.4L329.4,209L297.6,209L297.6,209z" fill="#424242"/><g><circle cx="340" cy="368" fill="#784719" r="10.6"/><circle cx="255.3" cy="368" fill="#784719" r="10.6"/></g><polygon fill="#FFFFFF" points="297.6,622.3 244.7,495.1 297.6,505.7 350.6,495.1 "/><polygon fill="#D32F2F" points="287,537.5 279.6,585.2 297.6,627.6 315.7,585.2 308.2,537.5 318.8,526.9 297.6,505.7 276.4,526.9   "/><path d="M350.6,495.1L350.6,495.1l-53,127.2l-53-127.2c0,0-116.6,21.2-116.6,137.8h339.1  C467.2,516.3,350.6,495.1,350.6,495.1z" fill="#546E7A"/></svg>