<?xml version="1.0" encoding="UTF-8" standalone="no"?>
<svg
   xmlns:dc="http://purl.org/dc/elements/1.1/"
   xmlns:cc="http://creativecommons.org/ns#"
   xmlns:rdf="http://www.w3.org/1999/02/22-rdf-syntax-ns#"
   xmlns:svg="http://www.w3.org/2000/svg"
   xmlns="http://www.w3.org/2000/svg"
   xmlns:sodipodi="http://sodipodi.sourceforge.net/DTD/sodipodi-0.dtd"
   xmlns:inkscape="http://www.inkscape.org/namespaces/inkscape"
   width="48"
   height="48"
   viewBox="0 0 48 48"
   id="svg2"
   version="1.1"
   inkscape:version="0.48.3.1 r9886"
   sodipodi:docname="dashboard.svg">
  <metadata
     id="metadata40">
    <rdf:RDF>
      <cc:Work
         rdf:about="">
        <dc:format>image/svg+xml</dc:format>
        <dc:type
           rdf:resource="http://purl.org/dc/dcmitype/StillImage" />
      </cc:Work>
    </rdf:RDF>
  </metadata>
  <defs
     id="defs38" />
  <sodipodi:namedview
     pagecolor="#ffffff"
     bordercolor="#666666"
     borderopacity="1"
     objecttolerance="10"
     gridtolerance="10"
     guidetolerance="10"
     inkscape:pageopacity="0"
     inkscape:pageshadow="2"
     inkscape:window-width="2560"
     inkscape:window-height="1392"
     id="namedview36"
     showgrid="true"
     inkscape:snap-global="false"
     showguides="true"
     inkscape:guide-bbox="true"
     inkscape:zoom="11.94"
     inkscape:cx="9.7885663"
     inkscape:cy="30.378973"
     inkscape:window-x="0"
     inkscape:window-y="0"
     inkscape:window-maximized="1"
     inkscape:current-layer="svg2">
    <inkscape:grid
       type="xygrid"
       id="grid3785" />
    <sodipodi:guide
       orientation="1,0"
       position="24.016328,40.953217"
       id="guide3799" />
    <sodipodi:guide
       orientation="0,1"
       position="27.063176,21.955226"
       id="guide3801" />
    <sodipodi:guide
       orientation="0,1"
       position="-26.346271,63.177282"
       id="guide3803" />
    <sodipodi:guide
       orientation="1,0"
       position="-59.323916,49.197628"
       id="guide3805" />
    <sodipodi:guide
       orientation="1,0"
       position="-14.696559,54.126352"
       id="guide3807" />
    <sodipodi:guide
       orientation="1,0"
       position="-50.810665,48.570336"
       id="guide3809" />
    <sodipodi:guide
       orientation="0,1"
       position="-32.439966,46.15078"
       id="guide3811" />
    <sodipodi:guide
       orientation="1,0"
       position="-23.299423,57.979718"
       id="guide3813" />
    <sodipodi:guide
       orientation="1,0"
       position="-48.659949,53.678286"
       id="guide3815" />
    <sodipodi:guide
       orientation="1,0"
       position="-57.083587,53.767899"
       id="guide3833" />
    <sodipodi:guide
       orientation="0,1"
       position="-34.769908,40.953217"
       id="guide3870" />
    <sodipodi:guide
       orientation="0,1"
       position="-35.755653,38.444048"
       id="guide3872" />
    <sodipodi:guide
       orientation="1,0"
       position="-21.18928,60.38526"
       id="guide3874" />
    <sodipodi:guide
       orientation="0,1"
       position="-34,34"
       id="guide3878" />
  </sodipodi:namedview>
  <g
     id="g3918">
    <circle
       style="fill:#eeeeee"
       transform="matrix(1.5137821,0,0,1.3614397,-12.354725,-7.8680649)"
       sodipodi:ry="15"
       sodipodi:rx="15"
       sodipodi:cy="24"
       sodipodi:cx="24"
       id="circle4"
       r="15"
       cy="24"
       cx="24" />
    <g
       transform="translate(59.882747,18.257956)"
       id="g3907">
      <rect
         style="fill:#90a4ae"
         id="rect20"
         height="8.6846333"
         width="2.5047057"
         y="-15.207799"
         x="34.507053"
         transform="scale(-1,1)" />
      <rect
         style="fill:#90a4ae"
         id="rect22"
         height="2.5047057"
         width="8.6846333"
         y="7.0865612"
         x="50.646282"
         transform="scale(-1,1)" />
      <rect
         style="fill:#90a4ae"
         id="rect24"
         height="8.6837959"
         width="2.504822"
         transform="matrix(-0.86195991,0.50697644,0.50697644,0.86195991,0,0)"
         y="-34.499821"
         x="33.807186" />
      <rect
         style="fill:#90a4ae"
         id="rect26"
         height="8.685441"
         width="2.5049386"
         transform="matrix(-0.86891919,-0.49495398,-0.49495398,0.86891919,0,0)"
         y="1.4059249"
         x="25.683722" />
      <rect
         style="fill:#90a4ae"
         id="rect28"
         height="8.6844425"
         width="2.5046506"
         transform="matrix(-0.50001099,-0.86601906,-0.86601906,0.50001099,0,0)"
         y="11.593904"
         x="9.3883791" />
      <rect
         style="fill:#90a4ae"
         id="rect30"
         height="8.6887531"
         width="2.5058937"
         transform="matrix(0.45678332,0.88957799,0.88957799,-0.45678332,0,0)"
         y="-59.163731"
         x="-10.174876" />
      <rect
         x="-26.509834"
         y="-50.581806"
         transform="matrix(0.50001099,-0.86601906,0.86601906,0.50001099,0,0)"
         width="2.5046506"
         height="8.6844425"
         id="rect3823"
         style="fill:#90a4ae" />
      <rect
         transform="scale(-1,1)"
         x="12.504647"
         y="7.046783"
         width="8.6846333"
         height="2.5047057"
         id="rect3859"
         style="fill:#90a4ae" />
      <rect
         x="23.121111"
         y="3.3897431"
         transform="matrix(-0.50001099,0.86601906,-0.86601906,-0.50001099,0,0)"
         width="2.5046506"
         height="8.6844425"
         id="rect3887"
         style="fill:#90a4ae" />
    </g>
    <path
       inkscape:connector-curvature="0"
       id="path3787"
       d="m 24,4.756429 c -12.00798,0 -21.71875,9.74202 -21.71875,21.75 0,6.367215 2.732143,12.086092 7.09375,16.0625 l 29.25,0 c 4.366455,-3.976708 7.125,-9.69123 7.125,-16.0625 0,-12.00798 -9.74202,-21.75 -21.75,-21.75 z"
       style="fill:none;fill-opacity:1;fill-rule:evenodd;stroke:#00adc1;stroke-width:4;stroke-miterlimit:4;stroke-opacity:1;stroke-dasharray:none" />
    <g
       transform="translate(-50.889066,16.531117)"
       id="g3794">
      <path
         style="fill:#263238"
         inkscape:connector-curvature="0"
         id="path8"
         d="m 73.450938,7.032058 c -1.438,0.837 -1.912,2.678 -1.058,4.111 0.853,1.437 2.707,1.919 4.146,1.082 1.438,-0.836 1.911,-2.677 1.056,-4.112 -0.853,-1.434 -2.708,-1.92 -4.144,-1.081" />
      <polygon
         style="fill:#263238"
         id="polygon10"
         points="35.299,17.444 25.925,25.238 23.866,21.776 "
         transform="translate(50.965938,-14.382942)" />
      <path
         d="m 74.477938,8.7630578 c -0.477,0.277 -0.634,0.894 -0.35,1.3710002 0.283,0.478 0.904,0.639 1.382,0.359 0.479,-0.277 0.637,-0.8930002 0.353,-1.3720002 -0.285,-0.476 -0.906,-0.637 -1.385,-0.358"
         id="path32"
         inkscape:connector-curvature="0"
         style="fill:#4dd0e1" />
    </g>
  </g>
</svg>
