<?xml version="1.0" encoding="UTF-8" standalone="no"?>
<!-- Generator: Adobe Illustrator 18.0.0, SVG Export Plug-In . SVG Version: 6.00 Build 0)  -->

<svg
   xmlns:dc="http://purl.org/dc/elements/1.1/"
   xmlns:cc="http://creativecommons.org/ns#"
   xmlns:rdf="http://www.w3.org/1999/02/22-rdf-syntax-ns#"
   xmlns:svg="http://www.w3.org/2000/svg"
   xmlns="http://www.w3.org/2000/svg"
   xmlns:sodipodi="http://sodipodi.sourceforge.net/DTD/sodipodi-0.dtd"
   xmlns:inkscape="http://www.inkscape.org/namespaces/inkscape"
   version="1.1"
   id="Capa_1"
   x="0px"
   y="0px"
   viewBox="0 0 419 419"
   style="enable-background:new 0 0 419 419;"
   xml:space="preserve"
   inkscape:version="0.48.3.1 r9886"
   width="100%"
   height="100%"
   sodipodi:docname="data.svg"><metadata
   id="metadata39"><rdf:RDF><cc:Work
       rdf:about=""><dc:format>image/svg+xml</dc:format><dc:type
         rdf:resource="http://purl.org/dc/dcmitype/StillImage" /><dc:title /></cc:Work></rdf:RDF></metadata><defs
   id="defs37">



</defs><sodipodi:namedview
   pagecolor="#ffffff"
   bordercolor="#666666"
   borderopacity="1"
   objecttolerance="10"
   gridtolerance="10"
   guidetolerance="10"
   inkscape:pageopacity="0"
   inkscape:pageshadow="2"
   inkscape:window-width="2560"
   inkscape:window-height="1392"
   id="namedview35"
   showgrid="true"
   inkscape:zoom="2.258114"
   inkscape:cx="172.67527"
   inkscape:cy="208.94011"
   inkscape:window-x="0"
   inkscape:window-y="0"
   inkscape:window-maximized="1"
   inkscape:current-layer="Capa_1"
   showguides="true"
   inkscape:guide-bbox="true"
   inkscape:snap-global="true"><inkscape:grid
     type="xygrid"
     id="grid3786" /><sodipodi:guide
     orientation="1,0"
     position="210,340"
     id="guide3006" /><sodipodi:guide
     orientation="0,1"
     position="231.60921,386.60581"
     id="guide3008" /><sodipodi:guide
     orientation="0,1"
     position="162.52501,36.756337"
     id="guide3010" /></sodipodi:namedview>

<g
   id="g5">
</g>
<g
   id="g7">
</g>
<g
   id="g9">
</g>
<g
   id="g11">
</g>
<g
   id="g13">
</g>
<g
   id="g15">
</g>
<g
   id="g17">
</g>
<g
   id="g19">
</g>
<g
   id="g21">
</g>
<g
   id="g23">
</g>
<g
   id="g25">
</g>
<g
   id="g27">
</g>
<g
   id="g29">
</g>
<g
   id="g31">
</g>
<g
   id="g33">
</g>
<text
   xml:space="preserve"
   style="font-size:36px;font-style:normal;font-variant:normal;font-weight:bold;font-stretch:normal;text-align:start;line-height:125%;letter-spacing:0px;word-spacing:0px;writing-mode:lr-tb;text-anchor:start;fill:#000000;fill-opacity:1;stroke:none;font-family:Roboto;-inkscape-font-specification:Sans Bold"
   x="202.07877"
   y="299.13956"
   id="text3834"
   sodipodi:linespacing="125%"><tspan
     sodipodi:role="line"
     id="tspan3836"
     x="202.07877"
     y="299.13956" /></text>



<rect
   rx="28.108315"
   style="fill:#3f99bd;fill-opacity:1;fill-rule:evenodd;stroke:none"
   id="rect3016"
   width="418.33932"
   height="350.00577"
   x="0.36504304"
   y="32.994228"
   ry="28.108313" /><path
   inkscape:connector-curvature="0"
   style="fill:#3f78bd;fill-opacity:1;fill-rule:evenodd;stroke:none"
   d="M 28.46875,33 C 12.896818,33.048001 0.375,43.458131 0.375,56.463833 l 0,303.072337 C 0.375,372.54187 12.896744,383 28.46875,383 L 195,382.24366 225,32.39419 z"
   id="rect3853"
   sodipodi:nodetypes="ssssccs" /><g
   id="text3847"
   style="font-size:208.14990234px;font-style:normal;font-variant:normal;font-weight:bold;font-stretch:normal;text-align:start;line-height:125%;letter-spacing:0px;word-spacing:0px;writing-mode:lr-tb;text-anchor:start;fill:#ffffff;fill-opacity:1;stroke:none;font-family:Nimbus Mono L;-inkscape-font-specification:Nimbus Mono L Bold"
   transform="matrix(0.94577709,0,0,1.0573316,-1.4929527,-4.207542)"><path
     inkscape:connector-curvature="0"
     id="path3008"
     d="m 337.97564,170.20434 c -30.80615,0 -54.32712,21.02317 -54.32712,48.49893 0,27.05946 23.72911,48.49892 53.70267,48.49892 29.97356,0 53.70267,-21.43946 53.70267,-48.49892 0,-26.85131 -23.72911,-48.49893 -53.07822,-48.49893 m -0.20815,20.81499 c 18.10902,0 32.47138,12.28086 32.47138,27.68394 0,15.61122 -14.36236,27.68393 -32.88768,27.68393 -18.52532,0 -32.88768,-12.07271 -32.88768,-27.68393 0,-15.81938 14.36236,-27.68394 33.30398,-27.68394" /></g><path
   style="font-size:208.14990234px;font-style:normal;font-variant:normal;font-weight:bold;font-stretch:normal;text-align:start;line-height:125%;letter-spacing:0px;word-spacing:0px;writing-mode:lr-tb;text-anchor:start;fill:#ffffff;fill-opacity:1;stroke:none;font-family:Nimbus Mono L;-inkscape-font-specification:Nimbus Mono L Bold"
   d="m 115.03067,180.37952 -35.041686,0 c -5.118443,0 -6.693358,0.22009 -8.465126,1.54059 -2.952949,1.98074 -4.724722,5.72217 -4.724722,9.46358 0,3.52134 1.57491,6.82259 4.134131,8.80334 1.771769,1.76067 4.134136,2.20084 9.055717,2.20084 l 15.355345,0 0,52.15978 -24.017336,0 c -5.118443,0 -6.496493,0.22009 -8.268262,1.54058 -2.952948,1.98075 -4.724722,5.72218 -4.724722,9.46359 0,3.52134 1.57491,6.82259 4.134132,8.80334 1.574906,1.54058 4.330998,2.20084 8.858852,2.20084 l 67.721017,0 c 3.93726,0 6.89021,-0.66025 8.26826,-1.54058 2.95295,-2.20084 4.72472,-5.72218 4.72472,-9.4636 0,-3.52132 -1.57491,-6.82259 -4.13413,-9.02342 -1.96863,-1.54058 -3.54355,-1.98075 -8.85885,-1.98075 l -24.01734,0 0,-74.16813 m -2.75609,-40.93552 -23.229879,0 0,23.10876 23.229879,0 0,-23.10876"
   id="path3011"
   inkscape:connector-curvature="0" /></svg>