<?xml version="1.0" encoding="UTF-8" standalone="no"?>
<!-- Generator: Adobe Illustrator 18.0.0, SVG Export Plug-In . SVG Version: 6.00 Build 0)  -->

<svg
   xmlns:dc="http://purl.org/dc/elements/1.1/"
   xmlns:cc="http://creativecommons.org/ns#"
   xmlns:rdf="http://www.w3.org/1999/02/22-rdf-syntax-ns#"
   xmlns:svg="http://www.w3.org/2000/svg"
   xmlns="http://www.w3.org/2000/svg"
   xmlns:sodipodi="http://sodipodi.sourceforge.net/DTD/sodipodi-0.dtd"
   xmlns:inkscape="http://www.inkscape.org/namespaces/inkscape"
   version="1.1"
   id="Capa_1"
   x="0px"
   y="0px"
   viewBox="0 0 419 419"
   style="enable-background:new 0 0 419 419;"
   xml:space="preserve"
   inkscape:version="0.48.3.1 r9886"
   width="100%"
   height="100%"
   sodipodi:docname="federation.svg"
   inkscape:export-filename="/home/andres/WebProjects/SmallCloud/smallcloud/node_modules/smallcloud-core/admin/images/federation2.svg.png"
   inkscape:export-xdpi="831.40997"
   inkscape:export-ydpi="831.40997"><metadata
   id="metadata39"><rdf:RDF><cc:Work
       rdf:about=""><dc:format>image/svg+xml</dc:format><dc:type
         rdf:resource="http://purl.org/dc/dcmitype/StillImage" /><dc:title /></cc:Work></rdf:RDF></metadata><defs
   id="defs37" /><sodipodi:namedview
   pagecolor="#ffffff"
   bordercolor="#666666"
   borderopacity="1"
   objecttolerance="10"
   gridtolerance="10"
   guidetolerance="10"
   inkscape:pageopacity="0"
   inkscape:pageshadow="2"
   inkscape:window-width="2560"
   inkscape:window-height="1392"
   id="namedview35"
   showgrid="true"
   inkscape:zoom="1.019105"
   inkscape:cx="-206.46435"
   inkscape:cy="209.5"
   inkscape:window-x="0"
   inkscape:window-y="0"
   inkscape:window-maximized="1"
   inkscape:current-layer="Capa_1"><inkscape:grid
     type="xygrid"
     id="grid3786" /></sodipodi:namedview>

<g
   id="g5">
</g>
<g
   id="g7">
</g>
<g
   id="g9">
</g>
<g
   id="g11">
</g>
<g
   id="g13">
</g>
<g
   id="g15">
</g>
<g
   id="g17">
</g>
<g
   id="g19">
</g>
<g
   id="g21">
</g>
<g
   id="g23">
</g>
<g
   id="g25">
</g>
<g
   id="g27">
</g>
<g
   id="g29">
</g>
<g
   id="g31">
</g>
<g
   id="g33">
</g>
<rect
   style="fill:#ba3d3d;fill-opacity:1;fill-rule:evenodd;stroke:none"
   id="rect3016"
   width="418.33932"
   height="419.0694"
   x="0.36504304"
   y="-0.069411814"
   ry="28.108315" /><path
   sodipodi:type="arc"
   style="fill:#642121;fill-opacity:1;fill-rule:evenodd;stroke:none"
   id="path3840"
   sodipodi:cx="-455"
   sodipodi:cy="-186"
   sodipodi:rx="35"
   sodipodi:ry="35"
   d="m -420,-186 a 35,35 0 1 1 -70,0 35,35 0 1 1 70,0 z"
   transform="translate(586,311)" /><path
   transform="translate(778,365)"
   d="m -420,-186 a 35,35 0 1 1 -70,0 35,35 0 1 1 70,0 z"
   sodipodi:ry="35"
   sodipodi:rx="35"
   sodipodi:cy="-186"
   sodipodi:cx="-455"
   id="path3842"
   style="fill:#642121;fill-opacity:1;fill-rule:evenodd;stroke:none"
   sodipodi:type="arc" /><path
   sodipodi:type="arc"
   style="fill:#642121;fill-opacity:1;fill-rule:evenodd;stroke:none"
   id="path3844"
   sodipodi:cx="-455"
   sodipodi:cy="-186"
   sodipodi:rx="35"
   sodipodi:ry="35"
   d="m -420,-186 a 35,35 0 1 1 -70,0 35,35 0 1 1 70,0 z"
   transform="translate(550,527)" /><path
   transform="translate(700,495)"
   d="m -420,-186 a 35,35 0 1 1 -70,0 35,35 0 1 1 70,0 z"
   sodipodi:ry="35"
   sodipodi:rx="35"
   sodipodi:cy="-186"
   sodipodi:cx="-455"
   id="path3846"
   style="fill:#642121;fill-opacity:1;fill-rule:evenodd;stroke:none"
   sodipodi:type="arc" /><path
   sodipodi:type="arc"
   style="fill:none;stroke:#642121;stroke-width:18.95413589;stroke-miterlimit:4;stroke-opacity:1;stroke-dasharray:none"
   id="path3848"
   sodipodi:cx="-235"
   sodipodi:cy="274"
   sodipodi:rx="295"
   sodipodi:ry="485"
   d="m 60,274 a 295,485 0 1 1 -590,0 295,485 0 1 1 590,0 z"
   transform="matrix(0.97303916,0.23063995,-0.25679501,1.0833838,709.02604,-23.646775)" /><path
   transform="matrix(0.88803673,0.4597725,-0.51191166,0.98874192,860.92326,271.76414)"
   d="m 60,274 a 295,485 0 1 1 -590,0 295,485 0 1 1 590,0 z"
   sodipodi:ry="485"
   sodipodi:rx="295"
   sodipodi:cy="274"
   sodipodi:cx="-235"
   id="path3850"
   style="fill:none;stroke:#642121;stroke-width:18.95413589;stroke-miterlimit:4;stroke-opacity:1;stroke-dasharray:none"
   sodipodi:type="arc" /><path
   sodipodi:type="arc"
   style="fill:none;stroke:#642121;stroke-width:18.95413589;stroke-miterlimit:4;stroke-opacity:1;stroke-dasharray:none"
   id="path3852"
   sodipodi:cx="-235"
   sodipodi:cy="274"
   sodipodi:rx="295"
   sodipodi:ry="485"
   d="m 60,274 a 295,485 0 1 1 -590,0 295,485 0 1 1 590,0 z"
   transform="matrix(0.1687769,-0.98565428,1.0974295,0.18791656,138.75607,-384.88591)" /><path
   transform="matrix(1.0278415,-0.79662778,0.73760746,0.38051361,343.9483,309.92639)"
   d="m 60,274 a 295,485 0 1 1 -590,0 295,485 0 1 1 590,0 z"
   sodipodi:ry="485"
   sodipodi:rx="295"
   sodipodi:cy="274"
   sodipodi:cx="-235"
   id="path3854"
   style="fill:none;stroke:#642121;stroke-width:20.21640205;stroke-miterlimit:4;stroke-opacity:1;stroke-dasharray:none"
   sodipodi:type="arc" /><path
   sodipodi:type="arc"
   style="fill:none;stroke:#642121;stroke-width:18.95413589;stroke-miterlimit:4;stroke-opacity:1;stroke-dasharray:none"
   id="path3856"
   sodipodi:cx="-235"
   sodipodi:cy="274"
   sodipodi:rx="295"
   sodipodi:ry="485"
   d="m 60,274 a 295,485 0 1 1 -590,0 295,485 0 1 1 590,0 z"
   transform="matrix(0.51380637,-0.85790618,0.95519447,0.57207306,-227.70947,58.099463)" /><path
   sodipodi:type="arc"
   style="fill:none;stroke:#642121;stroke-width:16.17311952;stroke-miterlimit:4;stroke-opacity:1;stroke-dasharray:none"
   id="path3860"
   sodipodi:cx="-235"
   sodipodi:cy="274"
   sodipodi:rx="295"
   sodipodi:ry="485"
   d="m 60,274 a 295,485 0 1 1 -590,0 295,485 0 1 1 590,0 z"
   transform="matrix(0.92991719,-0.90902586,0.77630925,0.29359721,-362.50377,133.09592)" /><path
   transform="matrix(0.86407214,-0.50336799,0.56045093,0.96205967,686.59212,-222.40227)"
   d="m 60,274 a 295,485 0 1 1 -590,0 295,485 0 1 1 590,0 z"
   sodipodi:ry="485"
   sodipodi:rx="295"
   sodipodi:cy="274"
   sodipodi:cx="-235"
   id="path3862"
   style="fill:none;stroke:#642121;stroke-width:18.95413589;stroke-miterlimit:4;stroke-opacity:1;stroke-dasharray:none"
   sodipodi:type="arc" /></svg>