<?xml version="1.0" encoding="UTF-8" standalone="no"?>
<svg
   xmlns:dc="http://purl.org/dc/elements/1.1/"
   xmlns:cc="http://creativecommons.org/ns#"
   xmlns:rdf="http://www.w3.org/1999/02/22-rdf-syntax-ns#"
   xmlns:svg="http://www.w3.org/2000/svg"
   xmlns="http://www.w3.org/2000/svg"
   xmlns:sodipodi="http://sodipodi.sourceforge.net/DTD/sodipodi-0.dtd"
   xmlns:inkscape="http://www.inkscape.org/namespaces/inkscape"
   enable-background="new 45.6 168.9 504 504"
   id="Layer_1"
   version="1.1"
   viewBox="45.6 168.9 504 504"
   xml:space="preserve"
   inkscape:version="0.48.3.1 r9886"
   width="100%"
   height="100%"
   sodipodi:docname="groups.svg"><metadata
     id="metadata23"><rdf:RDF><cc:Work
         rdf:about=""><dc:format>image/svg+xml</dc:format><dc:type
           rdf:resource="http://purl.org/dc/dcmitype/StillImage" /><dc:title></dc:title></cc:Work></rdf:RDF></metadata><defs
     id="defs21" /><sodipodi:namedview
     pagecolor="#ffffff"
     bordercolor="#666666"
     borderopacity="1"
     objecttolerance="10"
     gridtolerance="10"
     guidetolerance="10"
     inkscape:pageopacity="0"
     inkscape:pageshadow="2"
     inkscape:window-width="2560"
     inkscape:window-height="1392"
     id="namedview19"
     showgrid="false"
     inkscape:zoom="1.3995495"
     inkscape:cx="126.73715"
     inkscape:cy="252"
     inkscape:window-x="0"
     inkscape:window-y="0"
     inkscape:window-maximized="1"
     inkscape:current-layer="Layer_1"
     showguides="true"
     inkscape:guide-bbox="true"
     inkscape:snap-global="true" /><g
     id="g4049"><g
       id="g4039"><rect
         style="fill:#bf360c"
         height="109.64707"
         width="97.464066"
         x="95.151138"
         y="430.14432"
         id="rect3" /><path
         style="fill:#56c939;fill-opacity:1"
         inkscape:connector-curvature="0"
         d="M 241.29357,606.7711 H 46.419107 c 0,-66.97971 66.979713,-79.16272 66.979713,-79.16272 h 60.91504 c 0,0 66.97971,12.18301 66.97971,79.16272 z"
         id="path5" /><path
         style="fill:#ff9800"
         inkscape:connector-curvature="0"
         d="m 143.8295,564.1574 c -13.41741,0 -30.43068,-36.54902 -30.43068,-36.54902 v -36.54903 h 60.91504 v 36.54903 c 0,0 -17.06695,36.54902 -30.48436,36.54902 z"
         id="path7" /><path
         style="fill:#ffb74d"
         inkscape:connector-curvature="0"
         d="m 198.67988,424.07964 c 0,-46.26322 -109.647077,-30.43068 -109.647077,0 0,6.70871 0,35.905 0,42.6137 0,30.43068 24.366017,54.7967 54.796697,54.7967 30.43069,0 54.79671,-24.36602 54.79671,-54.7967 0.0537,-6.7087 0.0537,-35.90499 0.0537,-42.6137 z"
         id="path9" /><path
         style="fill:#ff5722"
         inkscape:connector-curvature="0"
         d="m 143.8295,363.1646 c -37.13939,0 -91.345722,20.71649 -91.345722,141.90253 l 42.613694,28.60592 v -79.16272 l 73.098048,-42.61369 24.36601,30.43068 v 91.34573 l 42.6137,-36.54903 c 0,-24.36601 -4.2399,-121.77641 -66.97971,-121.77641 L 162.13085,363.1646 H 143.8295 z"
         id="path11" /><path
         style="fill:#ffb74d"
         inkscape:connector-curvature="0"
         d="m 143.8295,570.22207 c -26.78114,0 -30.43068,-42.61369 -30.43068,-42.61369 0,0 15.24217,24.36601 30.43068,24.36601 15.24218,0 30.43069,-24.36601 30.43069,-24.36601 0,0 -3.59587,42.61369 -30.43069,42.61369 z"
         id="path13" /><circle
         style="fill:#784719"
         sodipodi:ry="11.3"
         sodipodi:rx="11.3"
         sodipodi:cy="386.89999"
         sodipodi:cx="343"
         d="m 354.3,386.89999 c 0,6.24082 -5.05918,11.3 -11.3,11.3 -6.24082,0 -11.3,-5.05918 -11.3,-11.3 0,-6.24081 5.05918,-11.3 11.3,-11.3 6.24082,0 11.3,5.05919 11.3,11.3 z"
         cx="343"
         cy="386.89999"
         r="11.3"
         id="circle15"
         transform="matrix(0.5366964,0,0,0.5366964,-15.891344,259.0455)" /><circle
         style="fill:#784719"
         sodipodi:ry="11.3"
         sodipodi:rx="11.3"
         sodipodi:cy="386.89999"
         sodipodi:cx="252.3"
         d="m 263.6,386.89999 c 0,6.24082 -5.05918,11.3 -11.3,11.3 -6.24081,0 -11.3,-5.05918 -11.3,-11.3 0,-6.24081 5.05919,-11.3 11.3,-11.3 6.24082,0 11.3,5.05919 11.3,11.3 z"
         cx="252.3"
         cy="386.89999"
         r="11.3"
         id="circle17"
         transform="matrix(0.5366964,0,0,0.5366964,-15.891344,259.0455)" /></g><g
       transform="matrix(0.62389722,0,0,0.62389722,605.14834,258.03607)"
       id="g3957"><rect
         id="rect3915"
         y="276.45132"
         x="-323.92285"
         width="156.39702"
         height="175.94664"
         style="fill:#593c00;fill-opacity:1" /><path
         id="path3917"
         d="M -89.413465,559.87788 H -402.12137 c 0,-107.47989 107.47989,-127.02952 107.47989,-127.02952 h 97.74813 c 0,0 107.479885,19.54963 107.479885,127.02952 z"
         inkscape:connector-curvature="0"
         style="fill:#995e9e;fill-opacity:1" /><path
         id="path3919"
         d="m -245.81048,491.49724 c -21.53043,0 -48.831,-58.64888 -48.831,-58.64888 v -58.64888 h 97.74813 v 58.64888 c 0,0 -27.3867,58.64888 -48.91713,58.64888 z"
         inkscape:connector-curvature="0"
         style="fill:#ff9800" /><path
         id="path3921"
         d="m -157.7941,266.71959 c 0,-74.2369 -175.94664,-48.831 -175.94664,0 0,10.76522 0,57.61543 0,68.38064 0,48.831 39.09926,87.93026 87.93026,87.93026 48.831,0 87.93026,-39.09926 87.93026,-87.93026 0.0861,-10.76521 0.0861,-57.61542 0.0861,-68.38064 z"
         inkscape:connector-curvature="0"
         style="fill:#ffb74d" /><path
         id="path3923"
         d="m -245.81048,168.97146 c -59.59622,0 -146.57914,33.24298 -146.57914,227.70578 l 68.38064,45.90287 V 315.5506 l 117.29775,-68.38063 39.09925,48.83101 v 146.57913 l 68.380637,-58.64888 c 0,-39.09925 -6.803607,-195.41014 -107.479887,-195.41014 l -9.73175,-19.54963 h -29.3675 z"
         inkscape:connector-curvature="0"
         style="fill:#855900;fill-opacity:1" /><path
         id="path3925"
         d="m -245.81048,501.22899 c -42.97473,0 -48.831,-68.38063 -48.831,-68.38063 0,0 24.45856,39.09925 48.831,39.09925 24.45856,0 48.831,-39.09925 48.831,-39.09925 0,0 -5.77015,68.38063 -48.831,68.38063 z"
         inkscape:connector-curvature="0"
         style="fill:#ffb74d" /><circle
         transform="matrix(0.86121704,0,0,0.86121704,-502.10867,1.8953554)"
         id="circle3927"
         r="11.3"
         cy="386.89999"
         cx="343"
         d="m 354.3,386.89999 c 0,6.24082 -5.05918,11.3 -11.3,11.3 -6.24082,0 -11.3,-5.05918 -11.3,-11.3 0,-6.24081 5.05918,-11.3 11.3,-11.3 6.24082,0 11.3,5.05919 11.3,11.3 z"
         sodipodi:cx="343"
         sodipodi:cy="386.89999"
         sodipodi:rx="11.3"
         sodipodi:ry="11.3"
         style="fill:#784719" /><circle
         transform="matrix(0.86121704,0,0,0.86121704,-502.10867,1.8953554)"
         id="circle3929"
         r="11.3"
         cy="386.89999"
         cx="252.3"
         d="m 263.6,386.89999 c 0,6.24082 -5.05918,11.3 -11.3,11.3 -6.24081,0 -11.3,-5.05918 -11.3,-11.3 0,-6.24081 5.05919,-11.3 11.3,-11.3 6.24082,0 11.3,5.05919 11.3,11.3 z"
         sodipodi:cx="252.3"
         sodipodi:cy="386.89999"
         sodipodi:rx="11.3"
         sodipodi:ry="11.3"
         style="fill:#784719" /></g><g
       transform="matrix(0.87535547,0,0,0.87535547,-359.22267,71.58185)"
       id="g3900"><path
         id="path3118"
         d="M 923.12522,611.95667 H 590.64446 c 0,-114.27595 114.27596,-135.06173 114.27596,-135.06173 h 103.92885 c 0,0 114.27595,20.78578 114.27595,135.06173 z"
         inkscape:connector-curvature="0"
         style="fill:#47a0cd;fill-opacity:1" /><polygon
         style="fill:#ff9800"
         points="244.7,431.5 350.6,431.5 350.6,495.1 297.6,558.7 244.7,495.1 "
         id="polygon3054"
         transform="translate(458.9482,-14.142857)" /><g
         id="g3056"
         transform="translate(458.9482,-14.142857)"><circle
           d="m 414.2,368 c 0,11.70844 -9.49156,21.2 -21.2,21.2 -11.70844,0 -21.2,-9.49156 -21.2,-21.2 0,-11.70844 9.49156,-21.2 21.2,-21.2 11.70844,0 21.2,9.49156 21.2,21.2 z"
           style="fill:#ffa726"
           sodipodi:ry="21.200001"
           sodipodi:rx="21.200001"
           sodipodi:cy="368"
           sodipodi:cx="393"
           cx="393"
           cy="368"
           r="21.200001"
           id="circle3058" /><circle
           d="m 223.5,368 c 0,11.70844 -9.49156,21.2 -21.2,21.2 -11.70843,0 -21.2,-9.49156 -21.2,-21.2 0,-11.70844 9.49157,-21.2 21.2,-21.2 11.70844,0 21.2,9.49156 21.2,21.2 z"
           style="fill:#ffa726"
           sodipodi:ry="21.200001"
           sodipodi:rx="21.200001"
           sodipodi:cy="368"
           sodipodi:cx="202.3"
           cx="202.3"
           cy="368"
           r="21.200001"
           id="circle3060" /></g><path
         style="fill:#ffb74d"
         inkscape:connector-curvature="0"
         d="m 851.9482,290.25714 c 0,-80.5 -190.8,-53 -190.8,0 0,11.7 0,62.5 0,74.2 0,53 42.4,95.4 95.4,95.4 53,0 95.4,-42.4 95.4,-95.4 0,-11.7 0,-62.6 0,-74.2 z"
         id="path3062" /><path
         style="fill:#424242"
         inkscape:connector-curvature="0"
         d="m 756.5482,194.85714 c -64.6,0 -106,51.9 -106,116.6 0,8.5 0,24.4 0,24.4 l 21.2,18 v -53 l 127.2,-42.4 42.4,42.4 v 53 l 21.2,-18 c 0,0 0,-15.9 0,-24.4 0,-42.4 -10.6,-84.8 -63.6,-95.4 l -10.6,-21.2 -31.8,0 0,0 z"
         id="path3064" /><g
         id="g3066"
         transform="translate(458.9482,-14.142857)"><circle
           d="m 350.6,368 c 0,5.85422 -4.74578,10.6 -10.6,10.6 -5.85422,0 -10.6,-4.74578 -10.6,-10.6 0,-5.85422 4.74578,-10.6 10.6,-10.6 5.85422,0 10.6,4.74578 10.6,10.6 z"
           style="fill:#784719"
           sodipodi:ry="10.6"
           sodipodi:rx="10.6"
           sodipodi:cy="368"
           sodipodi:cx="340"
           cx="340"
           cy="368"
           r="10.6"
           id="circle3068" /><circle
           d="m 265.9,368 c 0,5.85422 -4.74578,10.6 -10.6,10.6 -5.85422,0 -10.6,-4.74578 -10.6,-10.6 0,-5.85422 4.74578,-10.6 10.6,-10.6 5.85422,0 10.6,4.74578 10.6,10.6 z"
           style="fill:#784719"
           sodipodi:ry="10.6"
           sodipodi:rx="10.6"
           sodipodi:cy="368"
           sodipodi:cx="255.3"
           cx="255.3"
           cy="368"
           r="10.6"
           id="circle3070" /></g><path
         id="path3120"
         d="m 756.78279,551.40621 c -46.79736,0 -53.17456,-74.46314 -53.17456,-74.46314 0,0 26.63417,42.57716 53.17456,42.57716 26.63416,0 53.17455,-42.57716 53.17455,-42.57716 0,0 -6.28342,74.46314 -53.17455,74.46314 z"
         inkscape:connector-curvature="0"
         style="fill:#ffb74d" /></g></g></svg>