<?xml version="1.0" encoding="UTF-8" standalone="no"?>
<svg
   xmlns:dc="http://purl.org/dc/elements/1.1/"
   xmlns:cc="http://creativecommons.org/ns#"
   xmlns:rdf="http://www.w3.org/1999/02/22-rdf-syntax-ns#"
   xmlns:svg="http://www.w3.org/2000/svg"
   xmlns="http://www.w3.org/2000/svg"
   xmlns:sodipodi="http://sodipodi.sourceforge.net/DTD/sodipodi-0.dtd"
   xmlns:inkscape="http://www.inkscape.org/namespaces/inkscape"
   version="1"
   viewBox="0 0 48 48"
   enable-background="new 0 0 48 48"
   id="svg2"
   inkscape:version="0.48.3.1 r9886"
   width="100%"
   height="100%"
   sodipodi:docname="picture.svg">
  <metadata
     id="metadata16">
    <rdf:RDF>
      <cc:Work
         rdf:about="">
        <dc:format>image/svg+xml</dc:format>
        <dc:type
           rdf:resource="http://purl.org/dc/dcmitype/StillImage" />
      </cc:Work>
    </rdf:RDF>
  </metadata>
  <defs
     id="defs14" />
  <sodipodi:namedview
     pagecolor="#ffffff"
     bordercolor="#666666"
     borderopacity="1"
     objecttolerance="10"
     gridtolerance="10"
     guidetolerance="10"
     inkscape:pageopacity="0"
     inkscape:pageshadow="2"
     inkscape:window-width="2560"
     inkscape:window-height="1392"
     id="namedview12"
     showgrid="false"
     inkscape:zoom="23.912705"
     inkscape:cx="24"
     inkscape:cy="24"
     inkscape:window-x="0"
     inkscape:window-y="0"
     inkscape:window-maximized="1"
     inkscape:current-layer="svg2" />
  <g
     id="g2993"
     transform="matrix(1.1943343,0,0,1.1943343,-4.6148247,-4.6222044)">
    <path
       id="path4"
       d="M 40,41 H 8 C 5.8,41 4,39.2 4,37 V 11 C 4,8.8 5.8,7 8,7 h 32 c 2.2,0 4,1.8 4,4 v 26 c 0,2.2 -1.8,4 -4,4 z"
       inkscape:connector-curvature="0"
       style="fill:#f57c00" />
    <circle
       id="circle6"
       r="3"
       cy="16"
       cx="35"
       d="m 38,16 c 0,1.656854 -1.343146,3 -3,3 -1.656854,0 -3,-1.343146 -3,-3 0,-1.656854 1.343146,-3 3,-3 1.656854,0 3,1.343146 3,3 z"
       sodipodi:cx="35"
       sodipodi:cy="16"
       sodipodi:rx="3"
       sodipodi:ry="3"
       style="fill:#fff9c4" />
    <polygon
       id="polygon8"
       points="31,32 20,16 9,32 "
       style="fill:#942a09" />
    <polygon
       id="polygon10"
       points="39,32 31,22 23,32 "
       style="fill:#bf360c" />
  </g>
</svg>
