<?xml version="1.0" encoding="UTF-8" standalone="no"?>
<!-- Generator: Adobe Illustrator 16.0.0, SVG Export Plug-In . SVG Version: 6.00 Build 0)  -->

<svg
   xmlns:dc="http://purl.org/dc/elements/1.1/"
   xmlns:cc="http://creativecommons.org/ns#"
   xmlns:rdf="http://www.w3.org/1999/02/22-rdf-syntax-ns#"
   xmlns:svg="http://www.w3.org/2000/svg"
   xmlns="http://www.w3.org/2000/svg"
   xmlns:sodipodi="http://sodipodi.sourceforge.net/DTD/sodipodi-0.dtd"
   xmlns:inkscape="http://www.inkscape.org/namespaces/inkscape"
   version="1.1"
   id="Capa_1"
   x="0px"
   y="0px"
   width="54.849px"
   height="54.849px"
   viewBox="0 0 54.849 54.849"
   style="enable-background:new 0 0 54.849 54.849;"
   xml:space="preserve"
   inkscape:version="0.48.3.1 r9886"
   sodipodi:docname="services.svg"><metadata
   id="metadata49"><rdf:RDF><cc:Work
       rdf:about=""><dc:format>image/svg+xml</dc:format><dc:type
         rdf:resource="http://purl.org/dc/dcmitype/StillImage" /></cc:Work></rdf:RDF></metadata><defs
   id="defs47">
	

		
	
			
			
			
		</defs><sodipodi:namedview
   pagecolor="#ffffff"
   bordercolor="#666666"
   borderopacity="1"
   objecttolerance="10"
   gridtolerance="10"
   guidetolerance="10"
   inkscape:pageopacity="0"
   inkscape:pageshadow="2"
   inkscape:window-width="2560"
   inkscape:window-height="1392"
   id="namedview45"
   showgrid="true"
   inkscape:zoom="13.135011"
   inkscape:cx="6.9174484"
   inkscape:cy="26.5"
   inkscape:window-x="0"
   inkscape:window-y="0"
   inkscape:window-maximized="1"
   inkscape:current-layer="Capa_1"
   showguides="false"
   inkscape:guide-bbox="true"
   inkscape:snap-global="false"><inkscape:grid
     type="xygrid"
     id="grid3000" /><sodipodi:guide
     orientation="0,1"
     position="24,39"
     id="guide3002" /><sodipodi:guide
     orientation="0,1"
     position="29,25.51397"
     id="guide3004" /><sodipodi:guide
     orientation="0,1"
     position="2.6125376,37.412355"
     id="guide3794" /><sodipodi:guide
     orientation="1,0"
     position="54.8837,39.759557"
     id="guide3796" /><sodipodi:guide
     orientation="1,0"
     position="109.80075,40.896871"
     id="guide3832" /></sodipodi:namedview>















<path
   style="fill:#902b23;fill-opacity:1"
   d="m 0.361,14.98301 13.662,5.465 12.537,5.015 c 0.477,0.191 1.251,0.191 1.729,0 l 12.541,-5.016 13.658,-5.463 c 0.477,-0.191 0.395701,-0.689356 0.395701,-0.689356 L 54.852012,11.925347 28.277,2.9060101 c -0.471,-0.204 -1.236,-0.204 -1.708,0 L 0,11.946473 0,14.294654 c 0,0 0,0.641229 0.361,0.688356 z"
   id="path3024"
   inkscape:connector-curvature="0"
   sodipodi:nodetypes="ccccccccccccc" /><path
   inkscape:connector-curvature="0"
   id="path13"
   d="m 0.38078371,12.294198 13.66199929,5.465 12.537,5.015 c 0.477,0.191 1.251,0.191 1.729,0 l 12.541,-5.016 13.658,-5.463 c 0.477,-0.191 0.48,-0.511 0.01,-0.716 l -26.221,-11.3619988 c -0.471,-0.204 -1.236,-0.204 -1.708,0 L 0.37078373,11.579198 c -0.472,0.204 -0.467,0.525 0.01,0.715 z"
   style="fill:#ce4d42;fill-opacity:1" /><g
   id="g15">
</g><g
   id="g17">
</g><g
   id="g19">
</g><g
   id="g21">
</g><g
   id="g23">
</g><g
   id="g25">
</g><g
   id="g27">
</g><g
   id="g29">
</g><g
   id="g31">
</g><g
   id="g33">
</g><g
   id="g35">
</g><g
   id="g37">
</g><g
   id="g39">
</g><g
   id="g41">
</g><g
   id="g43">
</g>
<path
   id="path3828"
   d="m 7.641454,24.509795 -7.625,2.054273 0,2.351977 c 0,0 0.014,0.640373 0.375,0.6875 l 13.65625,5.46875 12.53125,5 c 0.477,0.191 1.24075,0.191 1.71875,0 l 12.5625,-5 13.656244,-5.46875 c 0.477,-0.191 0.375,-0.6875 0.375,-0.6875 l 0,-2.375672 -7.625,-2.030578 -6.406244,2.5625 -12.5625,5 c -0.478,0.191 -1.24175,0.191 -1.71875,0 l -12.53125,-5 z"
   style="fill:#36722a;fill-opacity:1"
   inkscape:connector-curvature="0"
   sodipodi:nodetypes="ccccccccccccccccc" /><path
   style="fill:#57ad45;fill-opacity:1"
   d="m 54.513448,26.184929 -10.363994,-4.491 -14.916,5.966 c -0.536,0.215 -1.165,0.321 -1.792,0.321 -0.628,0 -1.256,-0.106 -1.793,-0.321 l -14.918,-5.966 -10.363,4.491 c -0.472,0.203 -0.467,0.523 0.01,0.716 l 26.199,10.478 c 0.477,0.19 1.251,0.19 1.729,0 l 26.198994,-10.479 c 0.476,-0.191 0.481,-0.511 0.009,-0.715 z"
   id="path3830"
   inkscape:connector-curvature="0" /><path
   sodipodi:nodetypes="ccccccccccccccccc"
   inkscape:connector-curvature="0"
   style="fill:#2d4c81;fill-opacity:1"
   d="m 7.601559,39.119079 -7.625,2.054273 0,2.351977 c 0,0 0.014,0.640373 0.375,0.6875 l 13.65625,5.46875 12.53125,5 c 0.477,0.191 1.24075,0.191 1.71875,0 l 12.5625,-5 13.656244,-5.46875 c 0.477,-0.191 0.375,-0.6875 0.375,-0.6875 l 0,-2.375672 -7.625,-2.030578 -6.406244,2.5625 -12.5625,5 c -0.478,0.191 -1.24175,0.191 -1.71875,0 l -12.53125,-5 z"
   id="path3834" /><path
   inkscape:connector-curvature="0"
   id="path3836"
   d="m 54.473553,40.794213 -10.363994,-4.491 -14.916,5.966 c -0.536,0.215 -1.165,0.321 -1.792,0.321 -0.628,0 -1.256,-0.106 -1.793,-0.321 l -14.918,-5.966 -10.363,4.491 c -0.472,0.203 -0.467,0.523 0.01,0.716 l 26.199,10.478 c 0.477,0.19 1.251,0.19 1.729,0 l 26.198994,-10.479 c 0.476,-0.191 0.481,-0.511 0.009,-0.715 z"
   style="fill:#4875c0;fill-opacity:1" /></svg>