<?xml version="1.0" encoding="UTF-8" standalone="no"?>
<!-- Created with Inkscape (http://www.inkscape.org/) -->

<svg
   xmlns:dc="http://purl.org/dc/elements/1.1/"
   xmlns:cc="http://creativecommons.org/ns#"
   xmlns:rdf="http://www.w3.org/1999/02/22-rdf-syntax-ns#"
   xmlns:svg="http://www.w3.org/2000/svg"
   xmlns="http://www.w3.org/2000/svg"
   xmlns:sodipodi="http://sodipodi.sourceforge.net/DTD/sodipodi-0.dtd"
   xmlns:inkscape="http://www.inkscape.org/namespaces/inkscape"
   width="1052.3622"
   height="744.09448"
   id="svg2"
   version="1.1"
   inkscape:version="0.48.3.1 r9886"
   sodipodi:docname="smallware-logos.svg">
  <defs
     id="defs4" />
  <sodipodi:namedview
     id="base"
     pagecolor="#ffffff"
     bordercolor="#666666"
     borderopacity="1.0"
     inkscape:pageopacity="0.0"
     inkscape:pageshadow="2"
     inkscape:zoom="1"
     inkscape:cx="603.04183"
     inkscape:cy="363.56147"
     inkscape:document-units="px"
     inkscape:current-layer="layer1"
     showgrid="false"
     showguides="false"
     inkscape:guide-bbox="true"
     inkscape:window-width="2560"
     inkscape:window-height="1392"
     inkscape:window-x="0"
     inkscape:window-y="0"
     inkscape:window-maximized="1"
     inkscape:snap-global="false">
    <inkscape:grid
       type="xygrid"
       id="grid3753"
       empspacing="5"
       dotted="true"
       visible="true"
       enabled="true"
       snapvisiblegridlinesonly="true" />
    <sodipodi:guide
       orientation="1,0"
       position="100,570"
       id="guide3755" />
    <sodipodi:guide
       orientation="0,1"
       position="500,380"
       id="guide3757" />
    <sodipodi:guide
       orientation="1,0"
       position="270,630"
       id="guide3761" />
    <sodipodi:guide
       orientation="1,0"
       position="130,540"
       id="guide3763" />
    <sodipodi:guide
       orientation="1,0"
       position="240,540"
       id="guide3765" />
    <sodipodi:guide
       orientation="0,1"
       position="170,510"
       id="guide3767" />
    <sodipodi:guide
       orientation="0,1"
       position="170,480"
       id="guide3769" />
    <sodipodi:guide
       orientation="0,1"
       position="170,450"
       id="guide3771" />
    <sodipodi:guide
       orientation="0,1"
       position="180,420"
       id="guide3777" />
    <sodipodi:guide
       orientation="1,0"
       position="210,750"
       id="guide3791" />
    <sodipodi:guide
       orientation="0,1"
       position="85,530"
       id="guide3812" />
    <sodipodi:guide
       orientation="1,0"
       position="110,576.98413"
       id="guide3814" />
    <sodipodi:guide
       orientation="1,0"
       position="230,585"
       id="guide3816" />
    <sodipodi:guide
       orientation="0,1"
       position="85,520"
       id="guide3818" />
    <sodipodi:guide
       orientation="0,1"
       position="160,470"
       id="guide3820" />
    <sodipodi:guide
       orientation="0,1"
       position="85,460"
       id="guide3822" />
    <sodipodi:guide
       orientation="0,1"
       position="98,540"
       id="guide3824" />
    <sodipodi:guide
       orientation="1,0"
       position="105,565"
       id="guide3826" />
    <sodipodi:guide
       orientation="0,1"
       position="121,563"
       id="guide3830" />
    <sodipodi:guide
       orientation="1,0"
       position="137,575"
       id="guide3832" />
    <sodipodi:guide
       orientation="1,0"
       position="123,574"
       id="guide3834" />
    <sodipodi:guide
       orientation="1,0"
       position="455,360"
       id="guide4118" />
    <sodipodi:guide
       orientation="0,1"
       position="490,350"
       id="guide4120" />
    <sodipodi:guide
       orientation="1,0"
       position="565,350"
       id="guide4122" />
    <sodipodi:guide
       orientation="1,0"
       position="555,345"
       id="guide4124" />
    <sodipodi:guide
       orientation="0,1"
       position="472,232.18182"
       id="guide4130" />
    <sodipodi:guide
       orientation="1,0"
       position="620,325"
       id="guide4134" />
    <sodipodi:guide
       orientation="1,0"
       position="660,395"
       id="guide4136" />
    <sodipodi:guide
       orientation="1,0"
       position="590,386.90909"
       id="guide4138" />
    <sodipodi:guide
       orientation="1,0"
       position="655,385"
       id="guide4144" />
    <sodipodi:guide
       orientation="1,0"
       position="690,395"
       id="guide4146" />
    <sodipodi:guide
       orientation="1,0"
       position="625,390"
       id="guide4148" />
    <sodipodi:guide
       orientation="0,1"
       position="615,375"
       id="guide4171" />
    <sodipodi:guide
       orientation="1,0"
       position="605,405"
       id="guide4173" />
  </sodipodi:namedview>
  <metadata
     id="metadata7">
    <rdf:RDF>
      <cc:Work
         rdf:about="">
        <dc:format>image/svg+xml</dc:format>
        <dc:type
           rdf:resource="http://purl.org/dc/dcmitype/StillImage" />
        <dc:title></dc:title>
      </cc:Work>
    </rdf:RDF>
  </metadata>
  <g
     inkscape:label="Layer 1"
     inkscape:groupmode="layer"
     id="layer1"
     transform="translate(0,-308.2677)">
    <path
       style="fill:#f6553d;fill-opacity:1;stroke:none"
       d="m 100,224.09448 10,10 100,0 30,30 -110,0 c 0,0 -25,-25 -25.02726,-25.02726 C 100.00022,234.09426 100,230.09448 100,224.09448 z"
       id="path3775"
       inkscape:connector-curvature="0"
       transform="translate(0,308.2677)"
       sodipodi:nodetypes="cccccsc" />
    <path
       style="fill:#f6553d;fill-opacity:1;stroke:none"
       d="m 240,294.09448 -30,30 -80,0 -30,-30 z"
       id="path3779"
       inkscape:connector-curvature="0"
       transform="translate(0,308.2677)"
       sodipodi:nodetypes="ccccc" />
    <rect
       style="fill:#ad1d08;fill-opacity:1;fill-rule:evenodd;stroke:none"
       id="rect3785"
       width="30"
       height="15"
       x="210"
       y="512.36218"
       ry="0" />
    <rect
       style="fill:#ad1d08;fill-opacity:1;fill-rule:evenodd;stroke:none"
       id="rect3787"
       width="30"
       height="30"
       x="210"
       y="572.36218"
       ry="0" />
    <rect
       ry="0"
       y="587.36218"
       x="100"
       height="15"
       width="30"
       id="rect3789"
       style="fill:#ad1d08;fill-opacity:1;fill-rule:evenodd;stroke:none" />
    <path
       style="fill:#f6553d;fill-opacity:1;stroke:none"
       d="m 240,204.09448 -30,-30 -73,0 c -5,0 -9,2 -14,7 l -18,18 c -5,5 -5,15 -5,15 0,-6 4,-10 10,-10 l 60,0 z"
       id="path3773"
       inkscape:connector-curvature="0"
       transform="translate(0,308.2677)"
       sodipodi:nodetypes="ccssccccc" />
    <path
       style="fill:#ad1d08;fill-opacity:1;stroke:none"
       d="m 100,214.09448 c 0,-6 4,-10 10,-10 l 20,0 0,30 -20,0 c -5,0 -10,-5 -10,-10 z"
       id="path3828"
       inkscape:connector-curvature="0"
       transform="translate(0,308.2677)"
       sodipodi:nodetypes="ccccccc" />
    <path
       id="path3877"
       d="m 134.60526,711.96744 c -5,0 -9,2 -14,7 l -18,18 c -4.086957,4.08696 -4.832467,11.23611 -4.968747,13.8125 0.49771,-5.33087 4.376137,-8.8125 9.968747,-8.8125 l 60,0 0,-30 -33,0 z"
       style="fill:#f6553d;fill-opacity:1;stroke:none"
       inkscape:connector-curvature="0" />
    <path
       sodipodi:nodetypes="cssccc"
       inkscape:connector-curvature="0"
       style="fill:#ad1d08;fill-opacity:1;stroke:none"
       d="m 121.05263,687.36218 0,-5 c 0,-6.32118 3.87647,-10 10,-10 l 20,0 0,15 z"
       id="path3889" />
    <g
       id="g4011"
       inkscape:export-xdpi="831.40997"
       inkscape:export-ydpi="831.40997"
       transform="matrix(0.99932435,0,0,0.99932435,364.80472,-246.14949)">
      <path
         inkscape:connector-curvature="0"
         id="path3828-2"
         d="m 500,712.36145 c -6.12353,0 -10,3.67882 -10,10 l 0,5 0,3 0,2 c 0,5 5,10 10,10 l 20,0 0,-12 0,-3 0,-3 0,-12 -20,0 z"
         style="fill:#c72109;fill-opacity:1;stroke:none" />
      <path
         id="path3773-0"
         d="m 527,682.36145 c -5,0 -9,2 -14,7 l -18,18 c -4.08696,4.08696 -4.83247,11.23611 -4.96875,13.8125 0.49771,-5.33087 4.37614,-8.8125 9.96875,-8.8125 l 53,0 7,0 7,0 53,0 c 5.59261,0 9.47104,3.48163 9.96875,8.8125 -0.13628,-2.57639 -0.88179,-9.72554 -4.96875,-13.8125 l -18,-18 c -5,-5 -9,-7 -14,-7 l -26,0 -7,0 -7,0 -26,0 z"
         style="fill:#f5472d;fill-opacity:1;stroke:none"
         inkscape:connector-curvature="0" />
      <path
         sodipodi:nodetypes="cssccc"
         inkscape:connector-curvature="0"
         style="fill:#c72109;fill-opacity:1;stroke:none"
         d="m 630,727.36218 0,-5 c 0,-6.32118 -3.87647,-10 -10,-10 l -20,0 0,15 z"
         id="path3894" />
      <path
         inkscape:connector-curvature="0"
         id="path3896"
         d="m 489.95534,732.48689 c 0.13628,2.57639 0.88179,9.72554 4.96875,13.8125 l 18,18 c 5,5 9,7 14,7 l 24,0 9,0 9,0 51,0 c 5.59261,0 9.47104,3.48163 9.96875,8.8125 -0.13628,-2.57639 -0.88179,-9.72554 -4.96875,-13.8125 l -18,-18 c -5,-5 -9,-7 -14,-7 l -24,0 -9,0 -9,0 -51,0 c -5.59261,0 -9.47104,-3.48163 -9.96875,-8.8125 z"
         style="fill:#f5472d;fill-opacity:1;stroke:none" />
      <path
         inkscape:connector-curvature="0"
         style="fill:#c72109;fill-opacity:1;stroke:none"
         d="m 620.00129,771.27601 c 6.12353,0 10,3.67882 10,10 l 0,5 0,3 0,2 c 0,5 -5,10 -10,10 l -20,0 0,-12 0,-3 0,-3 0,-12 20,0 z"
         id="path3903" />
      <path
         style="fill:#f5472d;fill-opacity:1;stroke:none"
         d="m 593.0313,830.36645 c 5,0 9,-2 14,-7 l 18,-18 c 4.08696,-4.08696 4.83247,-11.23611 4.96875,-13.8125 -0.49771,5.33087 -4.37614,8.8125 -9.96875,8.8125 l -53,0 -7,0 -7,0 -53,0 c -5.59261,0 -9.47104,-3.48163 -9.96875,-8.8125 0.13628,2.57639 0.88179,9.72554 4.96875,13.8125 l 18,18 c 5,5 9,7 14,7 l 26,0 7,0 7,0 26,0 z"
         id="path3911"
         inkscape:connector-curvature="0" />
      <path
         id="path3913"
         d="m 490.0313,785.36572 0,5 c 0,6.32118 3.87647,10 10,10 l 20,0 0,-15 z"
         style="fill:#c72109;fill-opacity:1;stroke:none"
         inkscape:connector-curvature="0"
         sodipodi:nodetypes="cssccc" />
    </g>
    <path
       inkscape:connector-curvature="0"
       id="path4104"
       d="m 465.01351,702.36218 c -6.11939,0 -9.99324,3.67634 -9.99324,9.99325 l 0,4.99662 0,2.99797 0,1.99865 c 0,4.99662 4.99662,9.99324 9.99324,9.99324 l 19.98649,0 0,-11.99189 0,-2.99797 0,-2.99798 0,-11.99189 -19.98649,0 z"
       style="fill:#c72109;fill-opacity:1;stroke:none" />
    <path
       style="fill:#f5472d;fill-opacity:1;stroke:none"
       d="M 492 364.125 C 487.00338 364.125 482.99662 366.12838 478 371.125 L 460.03125 389.09375 C 455.94705 393.17795 455.19869 400.3316 455.0625 402.90625 C 455.55987 397.57898 459.41117 394.09375 465 394.09375 L 517.96875 394.09375 L 524.96875 394.09375 L 531.96875 394.09375 L 555 394.09375 L 555 364.125 L 531.96875 364.125 L 524.96875 364.125 L 517.96875 364.125 L 492 364.125 z "
       transform="translate(0,308.2677)"
       id="path4106" />
    <path
       inkscape:connector-curvature="0"
       id="path4110"
       d="m 454.97564,722.47402 c 0.13619,2.57465 0.88119,9.71897 4.96539,13.80317 l 17.98784,17.98784 c 4.99662,4.99662 8.99392,6.99527 13.99054,6.99527 l 23.98379,0 8.99392,0 8.99391,0 50.96555,0 c 5.58883,0 9.46464,3.47928 9.96201,8.80655 -0.13619,-2.57465 -0.88119,-9.71897 -4.96539,-13.80317 l -17.98784,-17.98784 c -4.99662,-4.99662 -8.99392,-6.99527 -13.99054,-6.99527 l -23.98379,0 -8.99391,0 -8.99392,0 -50.96555,0 c -5.58883,0 -9.46464,-3.47928 -9.96201,-8.80655 z"
       style="fill:#f5472d;fill-opacity:1;stroke:none" />
    <path
       inkscape:connector-curvature="0"
       style="fill:#c72109;fill-opacity:1;stroke:none"
       d="m 584.93372,761.23694 c 6.1194,0 9.99325,3.67633 9.99325,9.99324 l 0,4.99662 0,2.99798 0,1.99864 c 0,4.99663 -4.99662,9.99325 -9.99325,9.99325 l -19.98648,0 0,-11.99189 0,-2.99798 0,-2.99797 0,-11.99189 19.98648,0 z"
       id="path4112" />
    <path
       style="fill:#f5472d;fill-opacity:1;stroke:none"
       d="m 557.98196,820.28745 c 4.99662,0 8.99392,-1.99865 13.99054,-6.99527 l 17.98784,-17.98784 c 4.08419,-4.0842 4.8292,-11.22851 4.96539,-13.80316 -0.49738,5.32726 -4.37318,8.80654 -9.96202,8.80654 l -52.96419,0 -6.99527,0 -6.99527,0 -52.96419,0 c -5.58883,0 -9.46464,-3.47928 -9.96201,-8.80654 0.13619,2.57465 0.88119,9.71896 4.96539,13.80316 l 17.98784,17.98784 c 4.99662,4.99662 8.99392,6.99527 13.99054,6.99527 l 25.98243,0 6.99527,0 6.99527,0 25.98244,0 z"
       id="path4114"
       inkscape:connector-curvature="0" />
    <path
       id="path4116"
       d="m 455.05155,775.31713 0,4.99662 c 0,6.31691 3.87385,9.99324 9.99324,9.99324 l 19.98649,0 0,-14.98986 z"
       style="fill:#c72109;fill-opacity:1;stroke:none"
       inkscape:connector-curvature="0"
       sodipodi:nodetypes="cssccc" />
    <path
       sodipodi:nodetypes="ccccc"
       inkscape:connector-curvature="0"
       id="path4140"
       d="m 610.18182,672.36218 -30,0 L 615,820.18036 l 30,0 z"
       style="fill:#c72109;fill-opacity:1;stroke:none" />
    <path
       style="fill:#c72109;fill-opacity:1;stroke:none"
       d="m 680.18182,672.36218 -30,0 L 685,820.18036 l 30,0 z"
       id="path4152"
       inkscape:connector-curvature="0"
       sodipodi:nodetypes="ccccc" />
    <path
       style="fill:#f5472d;fill-opacity:1;stroke:none"
       d="m 649.81818,672.36218 30,0 L 645,820.18036 l -30,0 z"
       id="path4150"
       inkscape:connector-curvature="0"
       sodipodi:nodetypes="ccccc" />
    <path
       sodipodi:nodetypes="ccccc"
       inkscape:connector-curvature="0"
       id="path4154"
       d="m 719.81818,672.36218 30,0 L 715,820.18036 l -30,0 z"
       style="fill:#f5472d;fill-opacity:1;stroke:none" />
    <path
       id="path4166"
       d="m 605,672.36218 c 4.09985,0.0417 5.81528,2.92909 6.31292,5.02586 l 8.0072,33.73751 c -1.42779,-5.9553 -4.49606,-8.76337 -10.08489,-8.76337 l -52.96875,0 -7,0 -7,0 -23.03125,0 0,-29.96875 23.03125,0 7,0 7,0 z"
       style="fill:#f5472d;fill-opacity:1;stroke:none"
       inkscape:connector-curvature="0"
       sodipodi:nodetypes="cscsccccccccc" />
    <path
       style="fill:none;stroke:none;stroke-width:1px;stroke-linecap:butt;stroke-linejoin:miter;stroke-opacity:1"
       d="m 627.23889,395.82347 -21.90915,-10.46698 -17.87839,-8.77667 -3.05558,-17.29328 28.02031,-2.53548 18.72355,3.38065 4.55086,23.20939 -4.09578,9.62183 z"
       id="path4168"
       inkscape:connector-curvature="0"
       transform="translate(0,308.2677)" />
  </g>
</svg>
