<?xml version="1.0" encoding="UTF-8" standalone="no"?>
<!-- Generator: Adobe Illustrator 18.0.0, SVG Export Plug-In . SVG Version: 6.00 Build 0)  -->

<svg
   xmlns:dc="http://purl.org/dc/elements/1.1/"
   xmlns:cc="http://creativecommons.org/ns#"
   xmlns:rdf="http://www.w3.org/1999/02/22-rdf-syntax-ns#"
   xmlns:svg="http://www.w3.org/2000/svg"
   xmlns="http://www.w3.org/2000/svg"
   xmlns:sodipodi="http://sodipodi.sourceforge.net/DTD/sodipodi-0.dtd"
   xmlns:inkscape="http://www.inkscape.org/namespaces/inkscape"
   version="1.1"
   id="Capa_1"
   x="0px"
   y="0px"
   viewBox="0 0 419 419"
   style="enable-background:new 0 0 419 419;"
   xml:space="preserve"
   inkscape:version="0.48.3.1 r9886"
   width="100%"
   height="100%"
   sodipodi:docname="smallcloud-logo.svg"><metadata
   id="metadata39"><rdf:RDF><cc:Work
       rdf:about=""><dc:format>image/svg+xml</dc:format><dc:type
         rdf:resource="http://purl.org/dc/dcmitype/StillImage" /><dc:title></dc:title></cc:Work></rdf:RDF></metadata><defs
   id="defs37" /><sodipodi:namedview
   pagecolor="#ffffff"
   bordercolor="#666666"
   borderopacity="1"
   objecttolerance="10"
   gridtolerance="10"
   guidetolerance="10"
   inkscape:pageopacity="0"
   inkscape:pageshadow="2"
   inkscape:window-width="2560"
   inkscape:window-height="1392"
   id="namedview35"
   showgrid="true"
   inkscape:zoom="1.028794"
   inkscape:cx="10.401768"
   inkscape:cy="209.5"
   inkscape:window-x="0"
   inkscape:window-y="0"
   inkscape:window-maximized="1"
   inkscape:current-layer="Capa_1"
   inkscape:snap-global="false"><inkscape:grid
     type="xygrid"
     id="grid3786" /></sodipodi:namedview>

<g
   id="g5">
</g>
<g
   id="g7">
</g>
<g
   id="g9">
</g>
<g
   id="g11">
</g>
<g
   id="g13">
</g>
<g
   id="g15">
</g>
<g
   id="g17">
</g>
<g
   id="g19">
</g>
<g
   id="g21">
</g>
<g
   id="g23">
</g>
<g
   id="g25">
</g>
<g
   id="g27">
</g>
<g
   id="g29">
</g>
<g
   id="g31">
</g>
<g
   id="g33">
</g>
<text
   xml:space="preserve"
   style="font-size:36px;font-style:normal;font-variant:normal;font-weight:bold;font-stretch:normal;text-align:start;line-height:125%;letter-spacing:0px;word-spacing:0px;writing-mode:lr-tb;text-anchor:start;fill:#000000;fill-opacity:1;stroke:none;font-family:Roboto;-inkscape-font-specification:Sans Bold"
   x="202.07877"
   y="299.13956"
   id="text3834"
   sodipodi:linespacing="125%"><tspan
     sodipodi:role="line"
     id="tspan3836"
     x="202.07877"
     y="299.13956" /></text>


<g
   transform="matrix(6.467567,0,0,6.467567,9.1455611,-6385.4653)"
   id="layer1"
   inkscape:label="Layer 1"><g
     transform="matrix(0.43241782,0,0,0.43241782,-210.99169,692.69863)"
     inkscape:export-ydpi="831.40997"
     inkscape:export-xdpi="831.40997"
     id="g4011"><path
       style="fill:#c72109;fill-opacity:1;stroke:none"
       d="m 500,712.36145 c -6.12353,0 -10,3.67882 -10,10 l 0,5 0,3 0,2 c 0,5 5,10 10,10 l 20,0 0,-12 0,-3 0,-3 0,-12 -20,0 z"
       id="path3828-2"
       inkscape:connector-curvature="0" /><path
       inkscape:connector-curvature="0"
       style="fill:#f5472d;fill-opacity:1;stroke:none"
       d="m 527,682.36145 c -5,0 -9,2 -14,7 l -18,18 c -4.08696,4.08696 -4.83247,11.23611 -4.96875,13.8125 0.49771,-5.33087 4.37614,-8.8125 9.96875,-8.8125 l 53,0 7,0 7,0 53,0 c 5.59261,0 9.47104,3.48163 9.96875,8.8125 -0.13628,-2.57639 -0.88179,-9.72554 -4.96875,-13.8125 l -18,-18 c -5,-5 -9,-7 -14,-7 l -26,0 -7,0 -7,0 -26,0 z"
       id="path3773-0" /><path
       id="path3894"
       d="m 630,727.36218 0,-5 c 0,-6.32118 -3.87647,-10 -10,-10 l -20,0 0,15 z"
       style="fill:#c72109;fill-opacity:1;stroke:none"
       inkscape:connector-curvature="0"
       sodipodi:nodetypes="cssccc" /><path
       style="fill:#f5472d;fill-opacity:1;stroke:none"
       d="m 489.95534,732.48689 c 0.13628,2.57639 0.88179,9.72554 4.96875,13.8125 l 18,18 c 5,5 9,7 14,7 l 24,0 9,0 9,0 51,0 c 5.59261,0 9.47104,3.48163 9.96875,8.8125 -0.13628,-2.57639 -0.88179,-9.72554 -4.96875,-13.8125 l -18,-18 c -5,-5 -9,-7 -14,-7 l -24,0 -9,0 -9,0 -51,0 c -5.59261,0 -9.47104,-3.48163 -9.96875,-8.8125 z"
       id="path3896"
       inkscape:connector-curvature="0" /><path
       id="path3903"
       d="m 620.00129,771.27601 c 6.12353,0 10,3.67882 10,10 l 0,5 0,3 0,2 c 0,5 -5,10 -10,10 l -20,0 0,-12 0,-3 0,-3 0,-12 20,0 z"
       style="fill:#c72109;fill-opacity:1;stroke:none"
       inkscape:connector-curvature="0" /><path
       inkscape:connector-curvature="0"
       id="path3911"
       d="m 593.0313,830.36645 c 5,0 9,-2 14,-7 l 18,-18 c 4.08696,-4.08696 4.83247,-11.23611 4.96875,-13.8125 -0.49771,5.33087 -4.37614,8.8125 -9.96875,8.8125 l -53,0 -7,0 -7,0 -53,0 c -5.59261,0 -9.47104,-3.48163 -9.96875,-8.8125 0.13628,2.57639 0.88179,9.72554 4.96875,13.8125 l 18,18 c 5,5 9,7 14,7 l 26,0 7,0 7,0 26,0 z"
       style="fill:#f5472d;fill-opacity:1;stroke:none" /><path
       sodipodi:nodetypes="cssccc"
       inkscape:connector-curvature="0"
       style="fill:#c72109;fill-opacity:1;stroke:none"
       d="m 490.0313,785.36572 0,5 c 0,6.32118 3.87647,10 10,10 l 20,0 0,-15 z"
       id="path3913" /></g></g></svg>