<?xml version="1.0" encoding="UTF-8" standalone="no"?>
<svg
   xmlns:dc="http://purl.org/dc/elements/1.1/"
   xmlns:cc="http://creativecommons.org/ns#"
   xmlns:rdf="http://www.w3.org/1999/02/22-rdf-syntax-ns#"
   xmlns:svg="http://www.w3.org/2000/svg"
   xmlns="http://www.w3.org/2000/svg"
   xmlns:sodipodi="http://sodipodi.sourceforge.net/DTD/sodipodi-0.dtd"
   xmlns:inkscape="http://www.inkscape.org/namespaces/inkscape"
   enable-background="new 45.6 168.9 504 504"
   id="Layer_1"
   version="1.1"
   viewBox="45.6 168.9 504 504"
   xml:space="preserve"
   inkscape:version="0.48.3.1 r9886"
   width="100%"
   height="100%"
   sodipodi:docname="users.svg"><metadata
     id="metadata23"><rdf:RDF><cc:Work
         rdf:about=""><dc:format>image/svg+xml</dc:format><dc:type
           rdf:resource="http://purl.org/dc/dcmitype/StillImage" /></cc:Work></rdf:RDF></metadata><defs
     id="defs21" /><sodipodi:namedview
     pagecolor="#ffffff"
     bordercolor="#666666"
     borderopacity="1"
     objecttolerance="10"
     gridtolerance="10"
     guidetolerance="10"
     inkscape:pageopacity="0"
     inkscape:pageshadow="2"
     inkscape:window-width="2560"
     inkscape:window-height="1392"
     id="namedview19"
     showgrid="false"
     inkscape:zoom="2.2990525"
     inkscape:cx="174.5768"
     inkscape:cy="252"
     inkscape:window-x="0"
     inkscape:window-y="0"
     inkscape:window-maximized="1"
     inkscape:current-layer="Layer_1" /><rect
     style="fill:#bf360c"
     height="225.84245"
     width="200.74886"
     x="197.50647"
     y="308.24829"
     id="rect3" /><path
     style="fill:#5b9ab9;fill-opacity:1"
     inkscape:connector-curvature="0"
     d="M 498.5192,672.05033 H 97.132047 c 0,-137.95956 137.959563,-163.05317 137.959563,-163.05317 h 125.46803 c 0,0 137.95956,25.09361 137.95956,163.05317 z"
     id="path5" /><path
     style="fill:#ff9800"
     inkscape:connector-curvature="0"
     d="m 297.77035,584.27798 c -27.63613,0 -62.67874,-75.28082 -62.67874,-75.28082 v -75.28082 h 125.46803 v 75.28082 c 0,0 -35.15316,75.28082 -62.78929,75.28082 z"
     id="path7" /><path
     style="fill:#ffb74d"
     inkscape:connector-curvature="0"
     d="m 410.74685,295.75678 c 0,-95.28937 -225.84245,-62.67874 -225.84245,0 0,13.81807 0,73.95429 0,87.77235 0,62.67874 50.18721,112.86596 112.86595,112.86596 62.67874,0 112.86596,-50.18722 112.86596,-112.86596 0.11054,-13.81806 0.11054,-73.95428 0.11054,-87.77235 z"
     id="path9" /><path
     style="fill:#ff5722"
     inkscape:connector-curvature="0"
     d="m 297.77035,170.28875 c -76.49681,0 -188.14677,42.67019 -188.14677,292.27971 l 87.77235,58.92023 V 358.43552 l 150.56163,-87.77234 50.18721,62.67874 v 188.14677 l 87.77235,-75.28082 c 0,-50.18721 -8.73301,-250.82551 -137.95956,-250.82551 l -12.49153,-25.09361 h -37.69568 z"
     id="path11" /><path
     style="fill:#ffb74d"
     inkscape:connector-curvature="0"
     d="m 297.77035,596.76951 c -55.16171,0 -62.67874,-87.77235 -62.67874,-87.77235 0,0 31.39464,50.18721 62.67874,50.18721 31.39464,0 62.67874,-50.18721 62.67874,-50.18721 0,0 -7.40648,87.77235 -62.67874,87.77235 z"
     id="path13" /><circle
     style="fill:#784719"
     sodipodi:ry="11.3"
     sodipodi:rx="11.3"
     sodipodi:cy="386.89999"
     sodipodi:cx="343"
     d="m 354.3,386.89999 c 0,6.24082 -5.05918,11.3 -11.3,11.3 -6.24082,0 -11.3,-5.05918 -11.3,-11.3 0,-6.24081 5.05918,-11.3 11.3,-11.3 6.24082,0 11.3,5.05919 11.3,11.3 z"
     cx="343"
     cy="386.89999"
     r="11.3"
     id="circle15"
     transform="matrix(1.1054452,0,0,1.1054452,-31.210141,-44.167617)" /><circle
     style="fill:#784719"
     sodipodi:ry="11.3"
     sodipodi:rx="11.3"
     sodipodi:cy="386.89999"
     sodipodi:cx="252.3"
     d="m 263.6,386.89999 c 0,6.24082 -5.05918,11.3 -11.3,11.3 -6.24081,0 -11.3,-5.05918 -11.3,-11.3 0,-6.24081 5.05919,-11.3 11.3,-11.3 6.24082,0 11.3,5.05919 11.3,11.3 z"
     cx="252.3"
     cy="386.89999"
     r="11.3"
     id="circle17"
     transform="matrix(1.1054452,0,0,1.1054452,-31.210141,-44.167617)" /></svg>